# Blender 5.0.1
# www.blender.org
mtllib crate.mtl
o Crate.004
v -1.000000 0.000000 1.000000
v -1.000000 2.000000 1.000000
v -1.000000 0.000000 -1.000000
v -1.000000 2.000000 -1.000000
v 1.000000 0.000000 1.000000
v 1.000000 2.000000 1.000000
v 1.000000 0.000000 -1.000000
v 1.000000 2.000000 -1.000000
v -1.000000 0.140906 0.859094
v -1.000000 1.859094 0.859094
v -1.000000 1.859094 -0.859094
v -1.000000 0.140906 -0.859094
v -0.859094 0.140906 -1.000000
v -0.859094 1.859094 -1.000000
v 0.859094 1.859094 -1.000000
v 0.859094 0.140906 -1.000000
v 1.000000 0.140906 -0.859094
v 1.000000 1.859094 -0.859094
v 1.000000 1.859094 0.859094
v 1.000000 0.140906 0.859094
v 0.859094 0.140906 1.000000
v 0.859094 1.859094 1.000000
v -0.859094 1.859094 1.000000
v -0.859094 0.140906 1.000000
v -0.859094 0.000000 -0.859094
v 0.859094 0.000000 -0.859094
v 0.859094 0.000000 0.859094
v -0.859094 0.000000 0.859094
v 0.859094 2.000000 -0.859094
v -0.859094 2.000000 -0.859094
v -0.859094 2.000000 0.859094
v 0.859094 2.000000 0.859094
v -1.000000 1.000000 0.000000
v 0.000000 1.000000 -1.000000
v 1.000000 1.000000 0.000000
v 0.000000 1.000000 1.000000
v 0.000000 0.000000 0.000000
v 0.000000 2.000000 0.000000
v -0.802910 0.276546 -1.000000
v -0.802910 1.723454 -1.000000
v -0.079457 1.000000 -1.000000
v 1.000000 0.276546 -0.802910
v 1.000000 1.723454 -0.802910
v 1.000000 1.000000 -0.079457
v 0.802910 0.276546 1.000000
v 0.802910 1.723454 1.000000
v 0.079457 1.000000 1.000000
v -0.723454 0.000000 -0.802910
v 0.723454 0.000000 -0.802910
v 0.000000 0.000000 -0.079457
v 0.723454 2.000000 -0.802910
v -0.723454 2.000000 -0.802910
v 0.000000 2.000000 -0.079457
v -1.000000 0.276546 0.802910
v -1.000000 1.723454 0.802910
v -1.000000 1.000000 0.079457
v -1.000000 1.802910 0.723454
v -1.000000 1.802910 -0.723454
v -1.000000 1.079457 0.000000
v -1.000000 1.723454 -0.802910
v -1.000000 0.276546 -0.802910
v -1.000000 1.000000 -0.079457
v -1.000000 0.197090 -0.723454
v -1.000000 0.197090 0.723454
v -1.000000 0.920543 0.000000
v -0.723454 1.802910 -1.000000
v 0.723454 1.802910 -1.000000
v 0.000000 1.079457 -1.000000
v 0.802910 1.723454 -1.000000
v 0.802910 0.276546 -1.000000
v 0.079457 1.000000 -1.000000
v 0.723454 0.197090 -1.000000
v -0.723454 0.197090 -1.000000
v 0.000000 0.920543 -1.000000
v 1.000000 1.802910 -0.723454
v 1.000000 1.802910 0.723454
v 1.000000 1.079457 0.000000
v 1.000000 1.723454 0.802910
v 1.000000 0.276546 0.802910
v 1.000000 1.000000 0.079457
v 1.000000 0.197090 0.723454
v 1.000000 0.197090 -0.723454
v 1.000000 0.920543 0.000000
v 0.723454 1.802910 1.000000
v -0.723454 1.802910 1.000000
v 0.000000 1.079457 1.000000
v -0.802910 1.723454 1.000000
v -0.802910 0.276546 1.000000
v -0.079457 1.000000 1.000000
v -0.723454 0.197090 1.000000
v 0.723454 0.197090 1.000000
v 0.000000 0.920543 1.000000
v 0.802910 0.000000 -0.723454
v 0.802910 0.000000 0.723454
v 0.079457 0.000000 0.000000
v 0.723454 0.000000 0.802910
v -0.723454 0.000000 0.802910
v 0.000000 0.000000 0.079457
v -0.802910 0.000000 0.723454
v -0.802910 0.000000 -0.723454
v -0.079457 0.000000 0.000000
v -0.802910 2.000000 -0.723454
v -0.802910 2.000000 0.723454
v -0.079457 2.000000 0.000000
v -0.723454 2.000000 0.802910
v 0.723454 2.000000 0.802910
v 0.000000 2.000000 0.079457
v 0.802910 2.000000 0.723454
v 0.802910 2.000000 -0.723454
v 0.079457 2.000000 0.000000
v -0.802910 1.723454 -0.911545
v -0.802910 0.276546 -0.911545
v -0.079457 1.000000 -0.911545
v 0.911545 1.723454 -0.802910
v 0.911545 0.276546 -0.802910
v 0.911545 1.000000 -0.079457
v 0.802910 1.723454 0.911545
v 0.802910 0.276546 0.911545
v 0.079457 1.000000 0.911545
v 0.723454 0.088455 -0.802910
v -0.723454 0.088455 -0.802910
v 0.000000 0.088455 -0.079457
v -0.723454 1.911545 -0.802910
v 0.723454 1.911545 -0.802910
v 0.000000 1.911545 -0.079457
v -0.911545 0.276546 0.802910
v -0.911545 1.723454 0.802910
v -0.911545 1.000000 0.079457
v -0.911545 1.802910 0.723454
v -0.911545 1.802910 -0.723454
v -0.911545 1.079457 0.000000
v -0.911545 1.723454 -0.802910
v -0.911545 0.276546 -0.802910
v -0.911545 1.000000 -0.079457
v -0.911545 0.197090 -0.723454
v -0.911545 0.197090 0.723454
v -0.911545 0.920543 0.000000
v -0.723454 1.802910 -0.911545
v 0.723454 1.802910 -0.911545
v 0.000000 1.079457 -0.911545
v 0.802910 1.723454 -0.911545
v 0.802910 0.276546 -0.911545
v 0.079457 1.000000 -0.911545
v 0.723454 0.197090 -0.911545
v -0.723454 0.197090 -0.911545
v 0.000000 0.920543 -0.911545
v 0.911545 1.802910 -0.723454
v 0.911545 1.802910 0.723454
v 0.911545 1.079457 0.000000
v 0.911545 1.723454 0.802910
v 0.911545 0.276546 0.802910
v 0.911545 1.000000 0.079457
v 0.911545 0.197090 0.723454
v 0.911545 0.197090 -0.723454
v 0.911545 0.920543 0.000000
v 0.723454 1.802910 0.911545
v -0.723454 1.802910 0.911545
v 0.000000 1.079457 0.911545
v -0.802910 0.276546 0.911545
v -0.802910 1.723454 0.911545
v -0.079457 1.000000 0.911545
v -0.723454 0.197090 0.911545
v 0.723454 0.197090 0.911545
v 0.000000 0.920543 0.911545
v 0.802910 0.088455 0.723454
v 0.802910 0.088455 -0.723454
v 0.079457 0.088455 0.000000
v -0.723454 0.088455 0.802910
v 0.723454 0.088455 0.802910
v 0.000000 0.088455 0.079457
v -0.802910 0.088455 -0.723454
v -0.802910 0.088455 0.723454
v -0.079457 0.088455 0.000000
v -0.802910 1.911545 0.723454
v -0.802910 1.911545 -0.723454
v -0.079457 1.911545 0.000000
v 0.723454 1.911545 0.802910
v -0.723454 1.911545 0.802910
v 0.000000 1.911545 0.079457
v 0.802910 1.911545 -0.723454
v 0.802910 1.911545 0.723454
v 0.079457 1.911545 0.000000
vn -0.0000 -0.0000 1.0000
vn -0.0000 0.7071 -0.7071
vn 1.0000 -0.0000 -0.0000
vn -0.7071 -0.0000 0.7071
vn -0.0000 -0.7071 -0.7071
vn -1.0000 -0.0000 -0.0000
vn -0.0000 -0.0000 -1.0000
vn -0.0000 -1.0000 -0.0000
vn -0.0000 1.0000 -0.0000
vn -0.7071 -0.0000 -0.7071
vn 0.7071 -0.7071 -0.0000
vn -0.7071 -0.7071 -0.0000
vn 0.7071 0.7071 -0.0000
vn -0.7071 0.7071 -0.0000
vn -0.0000 0.7071 0.7071
vn 0.7071 -0.0000 0.7071
vn 0.7071 -0.0000 -0.7071
vn -0.0000 -0.7071 0.7071
vt 0.159568 0.524636
vt 0.340432 0.524636
vt 0.409568 0.225364
vt 0.500000 0.134932
vt 0.590432 0.975364
vt 0.409568 0.975364
vt 0.149636 0.534568
vt 0.240068 0.625000
vt 0.590432 0.225364
vt 0.375000 0.000000
vt 0.625000 0.000000
vt 0.607387 0.017613
vt 0.392613 0.017613
vt 0.625000 0.250000
vt 0.607387 0.232387
vt 0.375000 0.250000
vt 0.392613 0.232387
vt 0.607387 0.267613
vt 0.392613 0.267613
vt 0.625000 0.500000
vt 0.607387 0.482387
vt 0.375000 0.500000
vt 0.392613 0.482387
vt 0.607387 0.517613
vt 0.392613 0.517613
vt 0.625000 0.750000
vt 0.607387 0.732387
vt 0.375000 0.750000
vt 0.392613 0.732387
vt 0.607387 0.767613
vt 0.392613 0.767613
vt 0.625000 1.000000
vt 0.607387 0.982387
vt 0.375000 1.000000
vt 0.392613 0.982387
vt 0.125000 0.500000
vt 0.357387 0.517613
vt 0.142613 0.517613
vt 0.357387 0.732387
vt 0.125000 0.750000
vt 0.142613 0.732387
vt 0.875000 0.500000
vt 0.857387 0.517613
vt 0.642613 0.517613
vt 0.875000 0.750000
vt 0.857387 0.732387
vt 0.642613 0.732387
vt 0.149636 0.715432
vt 0.399636 0.284568
vt 0.490068 0.375000
vt 0.399636 0.465432
vt 0.590432 0.774636
vt 0.500000 0.865068
vt 0.600364 0.965432
vt 0.509932 0.875000
vt 0.409568 0.774636
vt 0.600364 0.784568
vt 0.600364 0.215432
vt 0.509932 0.125000
vt 0.159568 0.725364
vt 0.250000 0.634932
vt 0.600364 0.034568
vt 0.340432 0.725364
vt 0.409568 0.475364
vt 0.500000 0.384932
vt 0.590432 0.274636
vt 0.409568 0.274636
vt 0.500000 0.375000
vt 0.500000 0.365068
vt 0.590432 0.524636
vt 0.409568 0.524636
vt 0.500000 0.625000
vt 0.500000 0.615068
vt 0.500000 0.875000
vt 0.250000 0.625000
vt 0.250000 0.615068
vt 0.840432 0.524636
vt 0.659568 0.524636
vt 0.750000 0.625000
vt 0.750000 0.615068
vt 0.590432 0.024636
vt 0.409568 0.024636
vt 0.500000 0.125000
vt 0.500000 0.115068
vt 0.399636 0.034568
vt 0.399636 0.215432
vt 0.490068 0.125000
vt 0.600364 0.465432
vt 0.600364 0.284568
vt 0.509932 0.375000
vt 0.590432 0.475364
vt 0.600364 0.715432
vt 0.600364 0.534568
vt 0.509932 0.625000
vt 0.409568 0.725364
vt 0.590432 0.725364
vt 0.500000 0.634932
vt 0.399636 0.534568
vt 0.399636 0.715432
vt 0.490068 0.625000
vt 0.500000 0.884932
vt 0.399636 0.784568
vt 0.399636 0.965432
vt 0.490068 0.875000
vt 0.350364 0.715432
vt 0.350364 0.534568
vt 0.259932 0.625000
vt 0.850364 0.715432
vt 0.850364 0.534568
vt 0.759932 0.625000
vt 0.659568 0.725364
vt 0.840432 0.725364
vt 0.750000 0.634932
vt 0.649636 0.534568
vt 0.649636 0.715432
vt 0.740068 0.625000
s 0
usemtl wood
f 48/1/1 49/2/1 120/2/1 121/1/1
f 61/3/2 62/4/2 134/4/2 133/3/2
f 87/5/3 88/6/3 159/6/3 160/5/3
f 100/7/4 101/8/4 173/8/4 171/7/4
f 62/4/5 60/9/5 132/9/5 134/4/5
f 1/10/6 2/11/6 10/12/6 9/13/6
f 2/11/6 4/14/6 11/15/6 10/12/6
f 4/14/6 3/16/6 12/17/6 11/15/6
f 3/16/6 1/10/6 9/13/6 12/17/6
f 3/16/7 4/14/7 14/18/7 13/19/7
f 4/14/7 8/20/7 15/21/7 14/18/7
f 8/20/7 7/22/7 16/23/7 15/21/7
f 7/22/7 3/16/7 13/19/7 16/23/7
f 7/22/3 8/20/3 18/24/3 17/25/3
f 8/20/3 6/26/3 19/27/3 18/24/3
f 6/26/3 5/28/3 20/29/3 19/27/3
f 5/28/3 7/22/3 17/25/3 20/29/3
f 5/28/1 6/26/1 22/30/1 21/31/1
f 6/26/1 2/32/1 23/33/1 22/30/1
f 2/32/1 1/34/1 24/35/1 23/33/1
f 1/34/1 5/28/1 21/31/1 24/35/1
f 3/36/8 7/22/8 26/37/8 25/38/8
f 7/22/8 5/28/8 27/39/8 26/37/8
f 5/28/8 1/40/8 28/41/8 27/39/8
f 1/40/8 3/36/8 25/38/8 28/41/8
f 8/20/9 4/42/9 30/43/9 29/44/9
f 4/42/9 2/45/9 31/46/9 30/43/9
f 2/45/9 6/26/9 32/47/9 31/46/9
f 6/26/9 8/20/9 29/44/9 32/47/9
f 101/8/10 99/48/10 172/48/10 173/8/10
f 60/9/1 61/3/1 133/3/1 132/9/1
f 73/49/11 74/50/11 146/50/11 145/49/11
f 99/48/3 100/7/3 171/7/3 172/48/3
f 74/50/12 72/51/12 144/51/12 146/50/12
f 46/52/11 47/53/11 119/53/11 117/52/11
f 72/51/9 73/49/9 145/49/9 144/51/9
f 85/54/13 86/55/13 158/55/13 157/54/13
f 47/53/13 45/56/13 118/56/13 119/53/13
f 86/55/14 84/57/14 156/57/14 158/55/14
f 45/56/6 46/52/6 117/52/6 118/56/6
f 58/58/15 59/59/15 131/59/15 130/58/15
f 84/57/8 85/54/8 157/54/8 156/57/8
f 97/60/16 98/61/16 170/61/16 168/60/16
f 59/59/2 57/62/2 129/62/2 131/59/2
f 98/61/4 96/63/4 169/63/4 170/61/4
f 57/62/8 58/58/8 130/58/8 129/62/8
f 70/64/13 71/65/13 143/65/13 142/64/13
f 96/63/7 97/60/7 168/60/7 169/63/7
f 13/19/7 14/18/7 40/66/7 39/67/7
f 14/18/7 34/68/7 41/69/7 40/66/7
f 34/68/7 13/19/7 39/67/7 41/69/7
f 17/25/3 18/24/3 43/70/3 42/71/3
f 18/24/3 35/72/3 44/73/3 43/70/3
f 35/72/3 17/25/3 42/71/3 44/73/3
f 21/31/1 22/30/1 46/52/1 45/56/1
f 22/30/1 36/74/1 47/53/1 46/52/1
f 36/74/1 21/31/1 45/56/1 47/53/1
f 25/38/8 26/37/8 49/2/8 48/1/8
f 26/37/8 37/75/8 50/76/8 49/2/8
f 37/75/8 25/38/8 48/1/8 50/76/8
f 29/44/9 30/43/9 52/77/9 51/78/9
f 30/43/9 38/79/9 53/80/9 52/77/9
f 38/79/9 29/44/9 51/78/9 53/80/9
f 9/13/6 10/12/6 55/81/6 54/82/6
f 10/12/6 33/83/6 56/84/6 55/81/6
f 33/83/6 9/13/6 54/82/6 56/84/6
f 10/12/6 11/15/6 58/58/6 57/62/6
f 11/15/6 33/83/6 59/59/6 58/58/6
f 33/83/6 10/12/6 57/62/6 59/59/6
f 11/15/6 12/17/6 61/3/6 60/9/6
f 12/17/6 33/83/6 62/4/6 61/3/6
f 33/83/6 11/15/6 60/9/6 62/4/6
f 12/17/6 9/13/6 64/85/6 63/86/6
f 9/13/6 33/83/6 65/87/6 64/85/6
f 33/83/6 12/17/6 63/86/6 65/87/6
f 14/18/7 15/21/7 67/88/7 66/89/7
f 15/21/7 34/68/7 68/90/7 67/88/7
f 34/68/7 14/18/7 66/89/7 68/90/7
f 15/21/7 16/23/7 70/64/7 69/91/7
f 16/23/7 34/68/7 71/65/7 70/64/7
f 34/68/7 15/21/7 69/91/7 71/65/7
f 16/23/7 13/19/7 73/49/7 72/51/7
f 13/19/7 34/68/7 74/50/7 73/49/7
f 34/68/7 16/23/7 72/51/7 74/50/7
f 18/24/3 19/27/3 76/92/3 75/93/3
f 19/27/3 35/72/3 77/94/3 76/92/3
f 35/72/3 18/24/3 75/93/3 77/94/3
f 19/27/3 20/29/3 79/95/3 78/96/3
f 20/29/3 35/72/3 80/97/3 79/95/3
f 35/72/3 19/27/3 78/96/3 80/97/3
f 20/29/3 17/25/3 82/98/3 81/99/3
f 17/25/3 35/72/3 83/100/3 82/98/3
f 35/72/3 20/29/3 81/99/3 83/100/3
f 22/30/1 23/33/1 85/54/1 84/57/1
f 23/33/1 36/74/1 86/55/1 85/54/1
f 36/74/1 22/30/1 84/57/1 86/55/1
f 23/33/1 24/35/1 88/6/1 87/5/1
f 24/35/1 36/74/1 89/101/1 88/6/1
f 36/74/1 23/33/1 87/5/1 89/101/1
f 24/35/1 21/31/1 91/102/1 90/103/1
f 21/31/1 36/74/1 92/104/1 91/102/1
f 36/74/1 24/35/1 90/103/1 92/104/1
f 26/37/8 27/39/8 94/105/8 93/106/8
f 27/39/8 37/75/8 95/107/8 94/105/8
f 37/75/8 26/37/8 93/106/8 95/107/8
f 27/39/8 28/41/8 97/60/8 96/63/8
f 28/41/8 37/75/8 98/61/8 97/60/8
f 37/75/8 27/39/8 96/63/8 98/61/8
f 28/41/8 25/38/8 100/7/8 99/48/8
f 25/38/8 37/75/8 101/8/8 100/7/8
f 37/75/8 28/41/8 99/48/8 101/8/8
f 30/43/9 31/46/9 103/108/9 102/109/9
f 31/46/9 38/79/9 104/110/9 103/108/9
f 38/79/9 30/43/9 102/109/9 104/110/9
f 31/46/9 32/47/9 106/111/9 105/112/9
f 32/47/9 38/79/9 107/113/9 106/111/9
f 38/79/9 31/46/9 105/112/9 107/113/9
f 32/47/9 29/44/9 109/114/9 108/115/9
f 29/44/9 38/79/9 110/116/9 109/114/9
f 38/79/9 32/47/9 108/115/9 110/116/9
f 89/101/12 87/5/12 160/5/12 161/101/12
f 50/76/17 48/1/17 121/1/17 122/76/17
f 88/6/14 89/101/14 161/101/14 159/6/14
f 75/93/8 76/92/8 148/92/8 147/93/8
f 49/2/10 50/76/10 122/76/10 120/2/10
f 77/94/15 75/93/15 147/93/15 149/94/15
f 102/109/3 103/108/3 174/108/3 175/109/3
f 76/92/2 77/94/2 149/94/2 148/92/2
f 63/86/9 64/85/9 136/85/9 135/86/9
f 104/110/4 102/109/4 175/109/4 176/110/4
f 65/87/18 63/86/18 135/86/18 137/87/18
f 103/108/10 104/110/10 176/110/10 174/108/10
f 90/103/9 91/102/9 163/102/9 162/103/9
f 64/85/5 65/87/5 137/87/5 136/85/5
f 51/78/1 52/77/1 123/77/1 124/78/1
f 92/104/11 90/103/11 162/103/11 164/104/11
f 53/80/10 51/78/10 124/78/10 125/80/10
f 91/102/12 92/104/12 164/104/12 163/102/12
f 78/96/7 79/95/7 151/95/7 150/96/7
f 52/77/17 53/80/17 125/80/17 123/77/17
f 39/67/3 40/66/3 111/66/3 112/67/3
f 80/97/18 78/96/18 150/96/18 152/97/18
f 105/112/7 106/111/7 177/111/7 178/112/7
f 41/69/14 39/67/14 112/67/14 113/69/14
f 79/95/15 80/97/15 152/97/15 151/95/15
f 66/89/8 67/88/8 139/88/8 138/89/8
f 107/113/16 105/112/16 178/112/16 179/113/16
f 40/66/12 41/69/12 113/69/12 111/66/12
f 68/90/13 66/89/13 138/89/13 140/90/13
f 106/111/4 107/113/4 179/113/4 177/111/4
f 93/106/6 94/105/6 165/105/6 166/106/6
f 67/88/14 68/90/14 140/90/14 139/88/14
f 54/82/7 55/81/7 127/81/7 126/82/7
f 95/107/16 93/106/16 166/106/16 167/107/16
f 56/84/15 54/82/15 126/82/15 128/84/15
f 94/105/17 95/107/17 167/107/17 165/105/17
f 81/99/9 82/98/9 154/98/9 153/99/9
f 55/81/18 56/84/18 128/84/18 127/81/18
f 42/71/1 43/70/1 114/70/1 115/71/1
f 83/100/5 81/99/5 153/99/5 155/100/5
f 108/115/6 109/114/6 180/114/6 181/115/6
f 44/73/2 42/71/2 115/71/2 116/73/2
f 82/98/18 83/100/18 155/100/18 154/98/18
f 69/91/6 70/64/6 142/64/6 141/91/6
f 110/116/17 108/115/17 181/115/17 182/116/17
f 43/70/5 44/73/5 116/73/5 114/70/5
f 71/65/11 69/91/11 141/91/11 143/65/11
f 109/114/16 110/116/16 182/116/16 180/114/16
usemtl wood.001
f 112/67/7 111/66/7 113/69/7
f 115/71/3 114/70/3 116/73/3
f 118/56/1 117/52/1 119/53/1
f 121/1/8 120/2/8 122/76/8
f 124/78/9 123/77/9 125/80/9
f 126/82/6 127/81/6 128/84/6
f 129/62/6 130/58/6 131/59/6
f 132/9/6 133/3/6 134/4/6
f 135/86/6 136/85/6 137/87/6
f 138/89/7 139/88/7 140/90/7
f 141/91/7 142/64/7 143/65/7
f 144/51/7 145/49/7 146/50/7
f 147/93/3 148/92/3 149/94/3
f 150/96/3 151/95/3 152/97/3
f 153/99/3 154/98/3 155/100/3
f 156/57/1 157/54/1 158/55/1
f 160/5/1 159/6/1 161/101/1
f 162/103/1 163/102/1 164/104/1
f 166/106/8 165/105/8 167/107/8
f 169/63/8 168/60/8 170/61/8
f 172/48/8 171/7/8 173/8/8
f 175/109/9 174/108/9 176/110/9
f 178/112/9 177/111/9 179/113/9
f 181/115/9 180/114/9 182/116/9
