# Blender 5.0.1
# www.blender.org
mtllib lpBall.mtl
o Sphere
v 0.000000 0.809017 -0.587785
v 0.000000 -0.309017 -0.951057
v 0.509037 0.809017 -0.293893
v 0.823639 0.309017 -0.475528
v 0.823639 -0.309017 -0.475528
v 0.509037 0.809017 0.293893
v 0.823639 0.309017 0.475528
v 0.823639 -0.309017 0.475528
v -0.000000 0.809017 0.587785
v -0.000000 0.309017 0.951057
v -0.000000 -0.309017 0.951057
v -0.509037 0.809017 0.293893
v -0.823639 0.309017 0.475528
v -0.823639 -0.309017 0.475528
v -0.509037 0.809017 -0.293893
v -0.823639 0.309017 -0.475529
v -0.823639 -0.309017 -0.475529
v -0.000000 0.922189 -0.230082
v 0.199257 0.922189 -0.115041
v 0.199257 0.922189 0.115041
v -0.000000 0.922189 0.230082
v -0.199257 0.922189 0.115041
v -0.199257 0.922189 -0.115041
v 0.000000 -0.809017 -0.587785
v 0.000000 0.309017 -0.951057
v 0.509037 -0.809017 -0.293893
v 0.509037 -0.809017 0.293893
v -0.000000 -0.809017 0.587785
v -0.509037 -0.809017 0.293893
v -0.509037 -0.809017 -0.293893
v -0.000000 -0.922189 -0.230082
v 0.199257 -0.922189 -0.115041
v 0.199257 -0.922189 0.115041
v -0.000000 -0.922189 0.230082
v -0.199257 -0.922189 0.115041
v -0.199257 -0.922189 -0.115041
vn 0.5000 -0.0000 -0.8660
vn 0.4232 0.5326 -0.7330
vn 1.0000 -0.0000 -0.0000
vn 0.8464 0.5326 -0.0000
vn 0.5000 -0.0000 0.8660
vn 0.4232 0.5326 0.7330
vn -0.5000 -0.0000 0.8660
vn -0.4232 0.5326 0.7330
vn -1.0000 -0.0000 -0.0000
vn -0.8464 0.5326 -0.0000
vn -0.5000 -0.0000 -0.8660
vn -0.4232 0.5326 -0.7330
vn -0.1716 0.9393 0.2972
vn -0.3431 0.9393 -0.0000
vn 0.1716 0.9393 -0.2972
vn -0.1716 0.9393 -0.2972
vn 0.3431 0.9393 -0.0000
vn 0.1716 0.9393 0.2972
vn -0.0000 1.0000 -0.0000
vn 0.4232 -0.5326 -0.7330
vn 0.8464 -0.5326 -0.0000
vn 0.4232 -0.5326 0.7330
vn -0.4232 -0.5326 0.7330
vn -0.8464 -0.5326 -0.0000
vn -0.4232 -0.5326 -0.7330
vn -0.1716 -0.9393 0.2972
vn -0.3431 -0.9393 -0.0000
vn 0.1716 -0.9393 -0.2972
vn -0.1716 -0.9393 -0.2972
vn 0.3431 -0.9393 -0.0000
vn 0.1716 -0.9393 0.2972
vn -0.0000 -1.0000 -0.0000
vt 0.666667 0.400000
vt 0.666667 0.600000
vt 0.500000 0.600000
vt 0.500000 0.400000
vt 0.666667 0.800000
vt 0.500000 0.800000
vt 0.333333 0.600000
vt 0.333333 0.400000
vt 0.333333 0.800000
vt 0.166667 0.600000
vt 0.166667 0.400000
vt 0.166667 0.800000
vt 0.000000 0.600000
vt 0.000000 0.400000
vt 0.000000 0.800000
vt 1.000000 0.400000
vt 1.000000 0.600000
vt 0.833333 0.600000
vt 0.833333 0.400000
vt 1.000000 0.800000
vt 0.833333 0.800000
s 0
f 2/1/1 25/2/1 4/3/1 5/4/1
f 25/2/2 1/5/2 3/6/2 4/3/2
f 5/4/3 4/3/3 7/7/3 8/8/3
f 4/3/4 3/6/4 6/9/4 7/7/4
f 8/8/5 7/7/5 10/10/5 11/11/5
f 7/7/6 6/9/6 9/12/6 10/10/6
f 11/11/7 10/10/7 13/13/7 14/14/7
f 10/10/8 9/12/8 12/15/8 13/13/8
f 14/16/9 13/17/9 16/18/9 17/19/9
f 13/17/10 12/20/10 15/21/10 16/18/10
f 17/19/11 16/18/11 25/2/11 2/1/11
f 16/18/12 15/21/12 1/5/12 25/2/12
f 12/15/13 9/12/13 21/12/13 22/15/13
f 15/21/14 12/20/14 22/20/14 23/21/14
f 3/6/15 1/5/15 18/5/15 19/6/15
f 1/5/16 15/21/16 23/21/16 18/5/16
f 6/9/17 3/6/17 19/6/17 20/9/17
f 9/12/18 6/9/18 20/9/18 21/12/18
f 19/6/19 18/5/19 21/12/19 20/9/19
f 22/20/19 21/12/19 18/5/19 23/21/19
f 2/2/20 5/3/20 26/6/20 24/5/20
f 5/3/21 8/7/21 27/9/21 26/6/21
f 8/7/22 11/10/22 28/12/22 27/9/22
f 11/10/23 14/13/23 29/15/23 28/12/23
f 14/17/24 17/18/24 30/21/24 29/20/24
f 17/18/25 2/2/25 24/5/25 30/21/25
f 29/15/26 35/15/26 34/12/26 28/12/26
f 30/21/27 36/21/27 35/20/27 29/20/27
f 26/6/28 32/6/28 31/5/28 24/5/28
f 24/5/29 31/5/29 36/21/29 30/21/29
f 27/9/30 33/9/30 32/6/30 26/6/30
f 28/12/31 34/12/31 33/9/31 27/9/31
f 32/6/32 33/9/32 34/12/32 31/5/32
f 35/20/32 36/21/32 31/5/32 34/12/32
